<svg width="16" height="12" viewBox="0 0 16 12" fill="none" xmlns="http://www.w3.org/2000/svg">
<path d="M9.93387 2.56623L9.9339 2.56627L12.5686 5.2001L1.5 5.2001C1.28783 5.2001 1.08434 5.28439 0.934315 5.43442C0.784285 5.58444 0.7 5.78793 0.7 6.0001C0.7 6.21227 0.784286 6.41576 0.934315 6.56579C1.08434 6.71581 1.28783 6.8001 1.5 6.8001L12.5686 6.8001L9.9339 9.43393L9.93387 9.43397C9.78372 9.58412 9.69937 9.78776 9.69937 10.0001C9.69937 10.2124 9.78372 10.4161 9.93387 10.5662C10.084 10.7164 10.2877 10.8007 10.5 10.8007C10.7123 10.8007 10.916 10.7164 11.0661 10.5662L15.0659 6.5665C15.0659 6.56643 15.066 6.56635 15.0661 6.56628C15.0661 6.56626 15.0661 6.56625 15.0661 6.56623C15.1405 6.49197 15.1995 6.40379 15.2398 6.30672C15.2801 6.20952 15.3009 6.10533 15.3009 6.0001C15.3009 5.89487 15.2801 5.79068 15.2398 5.69349C15.1995 5.59641 15.1405 5.50823 15.0661 5.43397C15.0661 5.43396 15.0661 5.43394 15.0661 5.43393C15.066 5.43385 15.0659 5.43378 15.0659 5.4337L11.0661 1.43397C10.916 1.28382 10.7123 1.19947 10.5 1.19947C10.2877 1.19947 10.084 1.28382 9.93387 1.43397C9.78372 1.58412 9.69937 1.78776 9.69937 2.0001C9.69937 2.21244 9.78372 2.41609 9.93387 2.56623Z" fill="black" stroke="black" stroke-width="0.6"/>
</svg>
